<svg width="120" height="149" viewBox="0 0 120 149" fill="none" xmlns="http://www.w3.org/2000/svg">
<g opacity="0.8" clip-path="url(#clip0_62_152)">
<path d="M119.639 128.902L93.9751 84.2126C103.598 75.3257 95.1766 67.8774 102.842 61.6861C106.632 58.6018 108.835 53.9597 108.835 49.0566C108.835 44.1535 106.632 39.5114 102.842 36.4271C100.233 34.3104 98.871 31.0076 99.2207 27.6566C99.7679 22.745 98.0616 17.8532 94.5899 14.3632C91.1154 10.8703 86.2506 9.16212 81.3716 9.71542C78.0325 10.0758 74.7441 8.70245 72.6346 6.07497C69.5775 2.23307 64.9495 0 60.0593 0C55.169 0 50.5411 2.23307 47.4811 6.07213C45.3744 8.70245 42.0833 10.0729 38.7441 9.71258C33.8877 9.18765 29.0567 10.9043 25.6048 14.3802C22.1528 17.8561 20.4522 22.7194 20.9768 27.6027C21.3293 30.9849 19.939 34.3132 17.2908 36.4243C13.4807 39.5058 11.2668 44.1592 11.2668 49.0793C11.2668 53.9994 13.4835 58.65 17.2908 61.7315C24.9251 67.9058 16.4024 75.32 26.0757 84.2239L0.41463 128.919C-0.214277 130.029 -0.12403 131.411 0.648707 132.426C1.41863 133.442 2.72156 133.893 3.95117 133.573L21.7185 128.789L26.4734 146.665C26.809 147.899 27.8496 148.81 29.1103 148.974C30.3709 149.142 31.609 148.529 32.2492 147.425L60.0677 99.0609L87.8045 147.326C88.4447 148.43 89.6828 149.043 90.9434 148.875C92.204 148.708 93.2419 147.797 93.5775 146.565L98.3324 128.69L116.1 133.473C117.307 133.766 118.57 133.32 119.334 132.336C120.096 131.351 120.214 130.009 119.639 128.905V128.902ZM30.6699 137.593L27.0684 124.056C26.8513 123.244 26.3239 122.555 25.6019 122.135C24.88 121.715 24.0226 121.602 23.216 121.82L9.76081 125.444L31.5272 87.4927C37.2184 89.6264 39.4887 87.1436 43.9643 89.1469C47.7491 90.9174 48.3892 94.5437 54.0325 96.8279L30.6699 137.593ZM52.4024 87.9381C48.9392 83.6451 43.5554 81.4035 38.0898 81.9795C35.1399 82.3115 32.1956 81.29 30.0776 79.196C27.9596 77.1019 26.8908 74.1623 27.1643 71.1887C27.7707 65.6812 25.5286 60.2475 21.225 56.7887C18.9152 54.9046 17.5728 52.07 17.5728 49.0765C17.5728 46.083 18.9152 43.2484 21.225 41.3643C25.5399 37.8998 27.782 32.449 27.1643 26.933C26.8569 23.9537 27.9004 20.9971 30.0015 18.8804C32.1053 16.7636 35.0468 15.7138 38.0052 16.0259C43.4764 16.6388 48.8771 14.3887 52.3178 10.0673C54.1932 7.74055 57.0078 6.39277 59.9831 6.39277C62.9585 6.39277 65.7758 7.74339 67.6485 10.0673C71.0891 14.3887 76.4898 16.6388 81.961 16.0259C84.9448 15.6599 87.9286 16.6842 90.072 18.8038C92.2153 20.9233 93.2814 23.9112 92.9683 26.916C92.314 32.4348 94.5251 37.9054 98.8259 41.3983C101.138 43.2852 102.478 46.117 102.478 49.1105C102.478 52.104 101.136 54.9386 98.8259 56.8227C94.5646 60.2929 92.3563 65.7096 92.9683 71.1887C93.2757 74.1652 92.2322 77.1246 90.1312 79.2414C88.0273 81.3581 85.0858 82.408 82.1274 82.0958C76.6534 81.4801 71.2471 83.7387 67.8149 88.0715C65.9338 90.4209 63.0938 91.7829 60.0959 91.7744C57.0981 91.7659 54.2666 90.384 52.3996 88.0233V87.941L52.4024 87.9381ZM96.9194 121.82C96.1129 121.602 95.2555 121.715 94.5335 122.135C93.8116 122.555 93.2842 123.244 93.067 124.053L89.4656 137.591L66.1058 96.8733C72.2087 94.3593 72.0762 90.9004 76.518 89.0447C80.9599 87.1891 82.9509 89.5583 88.5772 87.4898L110.392 125.444L96.9194 121.817V121.82ZM87.593 48.9913C87.5817 41.6509 84.6713 34.6168 79.5046 29.4328C74.338 24.2488 67.3354 21.3433 60.0395 21.3518C52.7437 21.3603 45.7495 24.2857 40.5942 29.4811C35.4388 34.6764 32.5453 41.719 32.5509 49.0594C32.5566 56.4028 35.4558 63.4396 40.6167 68.6293C45.7777 73.819 52.7775 76.7331 60.0734 76.7331C67.3721 76.7245 74.3662 73.8048 79.5244 68.6123C84.6825 63.4198 87.5874 56.3829 87.5958 49.0424V48.9913H87.593ZM60.0706 70.3942C54.4414 70.3942 49.0435 68.1441 45.0642 64.1405C41.0849 60.1368 38.8485 54.706 38.8485 49.0424C38.8485 43.3789 41.0849 37.948 45.0642 33.9444C49.0435 29.9407 54.4414 27.6906 60.0706 27.6906C65.6997 27.6906 71.0976 29.9407 75.0769 33.9444C79.0562 37.948 81.2926 43.3789 81.2926 49.0424C81.287 54.7031 79.0506 60.1312 75.0713 64.1348C71.0919 68.1384 65.6969 70.3885 60.0706 70.3942Z" fill="#D8D8D8" fill-opacity="0.8" />
</g>
<defs>
<clipPath id="clip0_62_152">
<rect width="120" height="149" fill="white"/>
</clipPath>
</defs>
</svg>
