<svg width="141" height="95" viewBox="0 0 141 95" fill="none" xmlns="http://www.w3.org/2000/svg">
<g opacity="0.8" clip-path="url(#clip0_62_139)">
<path d="M18.904 52.6833H4.09274C1.83113 52.6833 0 50.8523 0 48.5977C0 46.3431 1.83425 44.5121 4.09274 44.5121H18.904C21.1656 44.5121 22.9967 46.3431 22.9967 48.5977C22.9967 50.8523 21.1625 52.6833 18.904 52.6833Z" fill="#D8D8D8" fill-opacity="0.8" />
<path d="M24.0667 31.2961C23.368 31.2961 22.663 31.1217 22.0172 30.7418L9.20558 23.3273C7.24968 22.2 6.58211 19.6963 7.71448 17.7438C8.84684 15.7851 11.3643 15.1187 13.3108 16.2584L26.1225 23.6729C28.0784 24.8002 28.7459 27.3039 27.6136 29.2564C26.8524 30.5643 25.4799 31.2961 24.0699 31.2961H24.0667Z" fill="#D8D8D8" fill-opacity="0.8" />
<path d="M11.2608 79.2928C9.84771 79.2928 8.47514 78.5641 7.71711 77.2531C6.58475 75.3006 7.24919 72.8 9.20822 71.6696L22.0199 64.2551C23.9727 63.1216 26.4838 63.788 27.6162 65.7405C28.7486 67.693 28.0841 70.1967 26.1251 71.324L13.3134 78.7385C12.6677 79.1153 11.9627 79.2928 11.2639 79.2928H11.2608Z" fill="#D8D8D8" fill-opacity="0.8" />
<path d="M136.904 52.6864H122.093C119.831 52.6864 118 50.8554 118 48.6008C118 46.3463 119.834 44.5152 122.093 44.5152H136.904C139.166 44.5152 140.997 46.3463 140.997 48.6008C140.997 50.8554 139.162 52.6864 136.904 52.6864Z" fill="#D8D8D8" fill-opacity="0.8" />
<path d="M116.934 31.2992C115.521 31.2992 114.148 30.5705 113.39 29.2595C112.258 27.307 112.922 24.8033 114.881 23.676L127.693 16.2615C129.649 15.1155 132.154 15.7944 133.289 17.7469C134.421 19.6994 133.757 22.2031 131.798 23.3304L118.986 30.7449C118.341 31.1217 117.636 31.2992 116.937 31.2992H116.934Z" fill="#D8D8D8" fill-opacity="0.8" />
<path d="M129.739 79.2959C129.04 79.2959 128.335 79.1215 127.689 78.7416L114.877 71.3271C112.922 70.1998 112.254 67.6961 113.386 65.7436C114.522 63.7849 117.03 63.1154 118.983 64.2582L131.794 71.6727C133.75 72.8 134.418 75.3037 133.285 77.2562C132.524 78.5641 131.152 79.2959 129.742 79.2959H129.739Z" fill="#D8D8D8" fill-opacity="0.8" />
<path d="M80.3424 46.3898C87.4018 43.7149 92.7891 37.8823 94.8885 30.6422C96.9879 23.402 95.556 15.5982 91.0172 9.57256C86.4815 3.54378 79.3691 0 71.82 0C64.2709 0 57.1585 3.54378 52.6228 9.56944C48.0871 15.5951 46.6521 23.3989 48.7515 30.639C50.8509 37.8792 56.2383 43.7118 63.2976 46.3867C55.4459 48.3112 48.4646 52.8079 43.4703 59.1543C38.476 65.5038 35.7527 73.3388 35.7402 81.4072V94.9969H107.9V81.4072C107.887 73.3356 105.164 65.5007 100.17 59.1543C95.1755 52.8079 88.1941 48.3112 80.3424 46.3867V46.3898ZM56.6594 23.9625C56.6594 19.9485 58.2566 16.0996 61.1015 13.2596C63.9434 10.4196 67.8021 8.82519 71.8231 8.82519C75.8441 8.82519 79.7029 10.4196 82.5447 13.2596C85.3866 16.0965 86.9869 19.9485 86.9869 23.9625C86.9869 27.9765 85.3897 31.8286 82.5447 34.6655C79.7029 37.5024 75.8441 39.0999 71.8231 39.0999C67.8021 39.0999 63.9434 37.5055 61.1015 34.6655C58.2597 31.8255 56.6594 27.9765 56.6594 23.9625ZM99.0467 86.1655H44.5933V81.4166C44.5933 71.707 49.7841 62.7354 58.2066 57.8807C66.6292 53.0259 77.0077 53.0259 85.4334 57.8807C93.8591 62.7354 99.0467 71.707 99.0467 81.4166V86.1655Z" fill="#D8D8D8" fill-opacity="0.8" />
</g>
<defs>
<clipPath id="clip0_62_139">
<rect width="141" height="95" fill="white"/>
</clipPath>
</defs>
</svg>
