<svg width="151" height="151" viewBox="0 0 151 151" fill="none" xmlns="http://www.w3.org/2000/svg">
<path opacity="0.8" d="M150 97.1281V89.9183C150 83.4335 146.306 77.8058 140.917 74.9987C143.51 72.7932 145.194 69.5495 145.194 65.8856C145.194 59.2608 139.805 53.8692 133.177 53.8692C132.878 53.8692 132.598 53.9379 132.304 53.9571L129.854 49.0627H135.578V41.8528C135.578 35.3681 131.884 29.7404 126.495 26.9333C129.088 24.7278 130.771 21.4841 130.771 17.8201C130.771 11.1954 125.383 5.80379 118.755 5.80379C112.128 5.80379 106.739 11.1926 106.739 17.8201C106.739 21.4841 108.42 24.7278 111.016 26.9333C110.985 26.9471 110.955 26.9608 110.928 26.9773L86.8048 16.9248C87.2332 15.6915 87.5134 14.3924 87.5134 13.0164C87.5134 6.39156 82.1247 1 75.4973 1C68.8698 1 63.4811 6.38882 63.4811 13.0164C63.4811 14.3951 63.7613 15.6943 64.1897 16.9248L40.0696 26.9773C40.0394 26.9636 40.0092 26.9498 39.9817 26.9333C42.5717 24.7278 44.2553 21.4841 44.2553 17.8201C44.2553 11.1954 38.8666 5.80379 32.2392 5.80379C25.6118 5.80379 20.2231 11.1926 20.2231 17.8201C20.2231 21.4841 21.9039 24.7278 24.4994 26.9333C19.1107 29.7404 15.4166 35.3681 15.4166 41.8528V49.0627H21.1404L18.6932 53.9571C18.3966 53.9351 18.1165 53.8692 17.8171 53.8692C11.1924 53.8692 5.80096 59.258 5.80096 65.8856C5.80096 69.5495 7.48184 72.7932 10.0773 74.9987C4.6941 77.8058 1 83.4335 1 89.9183V97.1281H18.7152L23.0959 106.249C21.3299 108.34 20.2258 111.007 20.2258 113.951C20.2258 117.615 21.9067 120.859 24.5022 123.064C19.1135 125.871 15.4194 131.499 15.4194 137.984V145.193H49.0645V137.984C49.0645 131.499 45.3704 125.871 39.9817 123.064C40.3635 122.74 40.7315 122.405 41.0693 122.034L63.2614 131.282C60.427 134.292 58.6747 138.335 58.6747 142.79V150H92.3198V142.79C92.3198 138.338 90.5675 134.295 87.7331 131.285L109.925 122.037C110.263 122.408 110.631 122.74 111.013 123.067C105.624 125.874 101.93 131.502 101.93 137.986V145.196H135.575V137.986C135.575 131.502 131.881 125.874 126.492 123.067C129.085 120.861 130.769 117.618 130.769 113.954C130.769 111.009 129.665 108.345 127.899 106.252L132.279 97.1308H149.992L150 97.1281ZM145.194 89.9183V92.3215H121.161V89.9183C121.161 83.2935 126.55 77.9019 133.177 77.9019C139.805 77.9019 145.194 83.2907 145.194 89.9183ZM140.387 65.8856C140.387 69.8599 137.152 73.0954 133.177 73.0954C129.203 73.0954 125.968 69.8599 125.968 65.8856C125.968 61.9112 129.203 58.6757 133.177 58.6757C137.152 58.6757 140.387 61.9112 140.387 65.8856ZM127.605 55.3029C123.792 57.3217 121.161 61.2823 121.161 65.8856C121.161 68.6019 122.101 71.0821 123.628 73.0954H85.0525C86.3653 71.3623 87.192 69.2748 87.4063 66.9952L105.336 49.0627H124.485L127.605 55.3029ZM87.5161 89.9183V92.3215H63.4839V89.9183C63.4839 83.2935 68.8726 77.9019 75.5 77.9019C82.1274 77.9019 87.5161 83.2907 87.5161 89.9183ZM75.5 125.967C71.5258 125.967 68.2903 122.732 68.2903 118.757C68.2903 114.783 71.5258 111.548 75.5 111.548C79.4743 111.548 82.7097 114.783 82.7097 118.757C82.7097 122.732 79.4743 125.967 75.5 125.967ZM68.2903 65.8856C68.2903 61.9112 71.5258 58.6757 75.5 58.6757C79.4743 58.6757 82.7097 61.9112 82.7097 65.8856C82.7097 69.8599 79.4743 73.0954 75.5 73.0954C71.5258 73.0954 68.2903 69.8599 68.2903 65.8856ZM63.4839 39.4496V37.0463C63.4839 30.4215 68.8726 25.03 75.5 25.03C82.1274 25.03 87.5161 30.4188 87.5161 37.0463V39.4496H63.4839ZM130.774 41.8528V44.2561H106.742V41.8528C106.742 35.2281 112.131 29.8365 118.758 29.8365C125.385 29.8365 130.774 35.2253 130.774 41.8528ZM111.548 17.8201C111.548 13.8458 114.784 10.6103 118.758 10.6103C122.732 10.6103 125.968 13.8458 125.968 17.8201C125.968 21.7945 122.732 25.03 118.758 25.03C114.784 25.03 111.548 21.7945 111.548 17.8201ZM106.522 30.3446C103.688 33.3549 101.935 37.3979 101.935 41.8528V45.6651L86.5054 61.0955C84.9618 57.5606 81.7704 54.9019 77.9032 54.1136V44.2561H92.3226V37.0463C92.3226 30.5616 88.6285 24.9338 83.2398 22.1268C83.6215 21.8027 83.9896 21.4676 84.3274 21.0968L106.519 30.3446H106.522ZM75.5 5.80105C79.4743 5.80105 82.7097 9.03654 82.7097 13.0109C82.7097 16.9852 79.4743 20.2207 75.5 20.2207C71.5258 20.2207 68.2903 16.9852 68.2903 13.0109C68.2903 9.03654 71.5258 5.80105 75.5 5.80105ZM67.7602 22.1241C62.3715 24.9311 58.6774 30.5589 58.6774 37.0436V44.2534H73.0968V54.1082C69.2269 54.8964 66.0382 57.5551 64.4946 61.09L49.0645 45.6624V41.8501C49.0645 37.3979 47.3122 33.3549 44.4778 30.3419L66.6699 21.0941C67.0077 21.4649 67.3757 21.8 67.7575 22.1241H67.7602ZM25.0323 17.8174C25.0323 13.8431 28.2677 10.6076 32.2419 10.6076C36.2162 10.6076 39.4516 13.8431 39.4516 17.8174C39.4516 21.7917 36.2162 25.0272 32.2419 25.0272C28.2677 25.0272 25.0323 21.7917 25.0323 17.8174ZM20.2258 41.8501C20.2258 35.2253 25.6145 29.8337 32.2419 29.8337C38.8693 29.8337 44.2581 35.2226 44.2581 41.8501V44.2534H20.2258V41.8501ZM26.5181 49.0599H45.667L63.5992 66.9924C63.8135 69.2721 64.6402 71.3623 65.953 73.0926H27.3696C28.8939 71.0794 29.836 68.5992 29.836 65.8828C29.836 61.2795 27.2048 57.3189 23.3926 55.3002L26.5126 49.0599H26.5181ZM10.6129 65.8828C10.6129 61.9085 13.8483 58.673 17.8226 58.673C21.7968 58.673 25.0323 61.9085 25.0323 65.8828C25.0323 69.8571 21.7968 73.0926 17.8226 73.0926C13.8483 73.0926 10.6129 69.8571 10.6129 65.8828ZM5.80645 89.9155C5.80645 83.2907 11.1952 77.8991 17.8226 77.8991C24.45 77.8991 29.8387 83.288 29.8387 89.9155V92.3188H5.80371V89.9155H5.80645ZM34.6452 97.1253V89.9155C34.6452 85.2106 32.6979 80.9561 29.5723 77.8991H63.7475C60.8554 80.7254 58.9933 84.5816 58.7269 88.8663L41.3687 106.225C39.166 103.621 35.9141 101.929 32.2419 101.929C30.3413 101.929 28.5643 102.413 26.9658 103.204L24.0435 97.1226H34.6452V97.1253ZM44.2581 137.981V140.384H20.2258V137.981C20.2258 131.356 25.6145 125.965 32.2419 125.965C38.8693 125.965 44.2581 131.353 44.2581 137.981ZM25.0323 113.948C25.0323 109.974 28.2677 106.738 32.2419 106.738C36.2162 106.738 39.4516 109.974 39.4516 113.948C39.4516 117.923 36.2162 121.158 32.2419 121.158C28.2677 121.158 25.0323 117.923 25.0323 113.948ZM44.2581 113.948C44.2581 112.797 44.0438 111.707 43.7417 110.652L58.6774 95.7163V97.1253H73.0968V106.98C67.6202 108.098 63.4839 112.948 63.4839 118.755C63.4839 122.419 65.1648 125.662 67.7602 127.868C67.73 127.882 67.6998 127.895 67.6724 127.912L43.5522 117.862C43.9779 116.626 44.2581 115.327 44.2581 113.951V113.948ZM87.5161 145.191H63.4839V142.787C63.4839 136.163 68.8726 130.771 75.5 130.771C82.1274 130.771 87.5161 136.16 87.5161 142.787V145.191ZM83.3304 127.912C83.3002 127.898 83.27 127.884 83.2425 127.868C85.8325 125.662 87.5161 122.419 87.5161 118.755C87.5161 112.954 83.3798 108.098 77.9032 106.98V97.1253H92.3226V95.7163L107.258 110.652C106.953 111.707 106.742 112.795 106.742 113.948C106.742 115.327 107.022 116.626 107.451 117.857L83.3304 127.909V127.912ZM130.774 137.981V140.384H106.742V137.981C106.742 131.356 112.131 125.965 118.758 125.965C125.385 125.965 130.774 131.353 130.774 137.981ZM111.548 113.948C111.548 109.974 114.784 106.738 118.758 106.738C122.732 106.738 125.968 109.974 125.968 113.948C125.968 117.923 122.732 121.158 118.758 121.158C114.784 121.158 111.548 117.923 111.548 113.948ZM124.034 103.206C122.436 102.415 120.661 101.932 118.758 101.932C115.086 101.932 111.834 103.624 109.629 106.228L92.2704 88.869C92.004 84.5844 90.1418 80.7281 87.2497 77.9019H121.425C118.299 80.9589 116.355 85.2133 116.355 89.9183V97.1281H126.957L124.034 103.209V103.206Z" fill="#D8D8D8" stroke="#D8D8D8" stroke-width="1.5" fill-opacity="0.8" />
</svg>
