<svg width="117" height="121" viewBox="0 0 117 121" fill="none" xmlns="http://www.w3.org/2000/svg">
<g opacity="0.8" clip-path="url(#clip0_62_136)">
<path d="M108.06 0H68.4027C66.0305 0 63.7572 0.943289 62.081 2.62202C60.4048 4.30076 59.4629 6.58064 59.4629 8.95325V37.9426C59.4852 40.0818 60.2675 42.141 61.6755 43.7526C63.0835 45.361 65.0184 46.413 67.132 46.7168L65.5579 53.8794C65.2291 55.3918 65.9059 56.9459 67.2373 57.7293C67.7833 58.0395 68.3995 58.2057 69.0253 58.2121C69.8874 58.2601 70.7398 57.9915 71.4199 57.4607L83.5078 46.8415H108.057C110.429 46.8415 112.703 45.8982 114.379 44.2195C116.055 42.5407 116.997 40.2641 116.997 37.8882V8.91808C116.987 6.54866 116.042 4.28157 114.366 2.60923C112.69 0.936894 110.42 0 108.057 0H108.06ZM109.848 37.9426C109.848 38.4158 109.66 38.8731 109.325 39.2088C108.99 39.5446 108.533 39.7333 108.06 39.7333H82.1541C81.2856 39.7333 80.4459 40.053 79.7946 40.6286L74.8426 44.9261L75.0405 44.0308C75.2768 42.9564 75.0054 41.8309 74.3094 40.9835C73.6134 40.1329 72.5629 39.6533 71.4646 39.6789H68.4091C67.4225 39.6789 66.6211 38.8763 66.6211 37.8882V8.91488C66.6211 7.92682 67.4225 7.12423 68.4091 7.12423H108.067C108.539 7.12423 108.996 7.31289 109.331 7.64863C109.666 7.98438 109.855 8.44164 109.855 8.91488V37.9426H109.848Z" fill="#D8D8D8" fill-opacity="0.8" />
<path d="M41.1743 75.9779C47.6908 73.4998 52.6652 68.0991 54.6032 61.3937C56.5412 54.6884 55.2194 47.4586 51.0305 41.8788C46.8415 36.299 40.2771 33.0151 33.3072 33.0151C26.3374 33.0151 19.773 36.299 15.584 41.8788C11.3951 47.4586 10.0733 54.6884 12.0113 61.3937C13.9493 68.0991 18.9237 73.503 25.4402 75.9779C18.1925 77.7622 11.7463 81.9254 7.1359 87.8026C2.5255 93.683 0.0127712 100.938 0 108.414V121H66.6145V108.414C66.6017 100.938 64.089 93.683 59.4786 87.8026C54.8682 81.9254 48.4219 77.7622 41.1743 75.9779ZM19.31 55.2064C19.31 51.4876 20.7851 47.9223 23.4096 45.2938C26.0341 42.6654 29.594 41.1881 33.3072 41.1881C37.0205 41.1881 40.5804 42.6654 43.2049 45.2938C45.8294 47.9223 47.3045 51.4876 47.3045 55.2064C47.3045 58.9252 45.8294 62.4905 43.2049 65.1189C40.5804 67.7473 37.0205 69.2246 33.3072 69.2246C29.594 69.2246 26.0341 67.7473 23.4096 65.1189C20.7851 62.4905 19.31 58.9252 19.31 55.2064ZM58.4409 112.814H8.17356V108.414C8.17356 99.4195 12.9627 91.1121 20.7404 86.6163C28.518 82.1205 38.0996 82.1205 45.8741 86.6163C53.6517 91.1121 58.4409 99.4226 58.4409 108.414V112.814Z" fill="#D8D8D8" fill-opacity="0.8" />
</g>
<defs>
<clipPath id="clip0_62_136">
<rect width="117" height="121" fill="white" />
</clipPath>
</defs>
</svg>
