<svg width="113" height="114" viewBox="0 0 113 114" fill="none" xmlns="http://www.w3.org/2000/svg">
<path d="M107.171 78.6583L111.878 96.084H111.873L112.046 96.716C113.148 100.739 112.219 105.024 109.525 108.313L109.911 108.63L109.524 108.313C106.831 111.601 102.671 113.519 98.2674 113.489H98.264C97.0884 113.489 95.9155 113.354 94.7725 113.087C94.7712 113.086 94.7699 113.086 94.7687 113.086L85.5344 110.768L85.5277 110.767C66.4273 106.253 46.4543 106.253 27.354 110.767L27.3473 110.768L18.1097 113.087C18.1089 113.087 18.1081 113.087 18.1073 113.087C13.2523 114.257 8.11409 112.9 4.59543 109.531C1.07876 106.165 -0.299118 101.293 0.955362 96.7161L0.955386 96.7161L0.956661 96.7113L5.71145 78.658L5.72794 78.5954V78.5307L5.72794 53.3131L5.72793 53.3104C5.66453 41.7174 10.0306 30.4962 18.0224 21.7263C26.0147 12.9558 37.0904 7.23988 49.1901 5.6426L49.6618 5.58033L49.623 5.10615C49.6113 4.96283 49.6113 4.81963 49.623 4.6763L49.6247 4.65597V4.63556C49.6247 3.5064 50.2638 2.48935 51.4586 1.73211C52.6583 0.971802 54.3883 0.5 56.4408 0.5C58.4933 0.5 60.2233 0.971802 61.423 1.73211C62.6179 2.48935 63.257 3.5064 63.257 4.63556V4.65113L63.2579 4.66667C63.2678 4.82494 63.2678 4.98283 63.2579 5.13765L63.2286 5.60146L63.689 5.66461C75.7589 7.32011 86.7939 13.0529 94.7729 21.8046L94.773 21.8047C102.751 30.553 107.145 41.739 107.154 53.3107V78.5279V78.5942L107.171 78.6583ZM102.608 75.9138L103.276 76.1532V75.4431V53.3095C103.299 47.4418 102.097 41.6311 99.7369 36.2114C97.3767 30.792 93.909 25.8747 89.5353 21.7441L89.5348 21.7437C87.1572 19.504 84.5401 17.5073 81.7203 15.793L81.0747 16.5383C85.3611 21.7395 87.6742 28.1596 87.644 34.7602V34.7625V70.204V70.5561L87.9755 70.6747L102.608 75.9138ZM54.5021 9.40524V8.85993L53.9588 8.90712C47.1833 9.49569 40.8795 12.4701 36.281 17.2483C31.6816 22.0275 29.1236 28.2726 29.115 34.7619V34.7625V68.9746V69.5896L29.7171 69.464C47.3228 65.7925 65.5589 65.7925 83.1646 69.464L83.7666 69.5896V68.9746V34.7625V34.7619C83.7581 28.2753 81.1972 22.0303 76.6008 17.2485C72.0049 12.4672 65.6981 9.49567 58.9228 8.90712L58.3795 8.85993V9.40524V23.175C58.3795 24.1577 57.5352 24.9942 56.4408 24.9942C55.3469 24.9942 54.5021 24.1553 54.5021 23.175V9.40524ZM31.8546 16.5379L31.2101 15.7922C24.5732 19.7969 19.1053 25.3368 15.3272 31.8975C11.5463 38.458 9.57733 45.826 9.60535 53.3084V75.4431V76.1532L10.2739 75.9138L24.9062 70.6747L25.2376 70.5561V70.204V34.7629C25.2431 28.1612 27.5703 21.7455 31.8546 16.5379ZM95.8299 109.423C99.1323 110.243 102.64 109.443 105.192 107.303L105.213 107.324L105.567 106.979C108.107 104.506 109.088 100.936 108.139 97.587C108.138 97.5853 108.138 97.5835 108.137 97.5817L103.653 80.4383L103.586 80.183L103.338 80.0941L85.4613 73.6982L85.435 73.6888L85.4078 73.6824C66.3883 69.191 46.4989 69.191 27.4795 73.6824L27.4524 73.6887L27.4263 73.6981L9.57491 80.0716L9.32647 80.1603L9.25944 80.4155L4.74713 97.5913L4.74663 97.5933C3.88611 100.923 4.91997 104.436 7.46154 106.852C10.0005 109.265 13.6717 110.235 17.1477 109.424L17.1488 109.424L26.4884 107.222L26.489 107.222C46.2182 102.543 66.8585 102.543 86.5905 107.222L95.8272 109.422C95.8281 109.423 95.829 109.423 95.8299 109.423ZM45.6058 55.5101C43.057 52.7455 41.5 49.0567 41.5 45.0014C41.5 36.4386 48.4381 29.5 57 29.5C65.5619 29.5 72.5 36.4413 72.5 45.0014C72.5 46.5086 72.2844 47.9669 71.8827 49.3442L62.1805 39.6411L61.8269 39.2875L61.4733 39.6411L45.6058 55.5101ZM51.1709 59.3678L61.8241 48.7137L68.4989 55.3891C65.6642 58.5276 61.5597 60.5 56.9972 60.5C54.9364 60.5 52.9691 60.0983 51.1709 59.3678Z" fill="#D8D8D8" stroke="#D8D8D8" fill-opacity="0.8" />
</svg>
