<svg width="60" height="60" viewBox="0 0 60 60" fill="none" xmlns="http://www.w3.org/2000/svg">
<path fill-rule="evenodd" clip-rule="evenodd" d="M0 0H60V37.146L55.9175 33.0633L50.7184 27.8642L50.7182 27.8641L45.519 33.0633L45.5192 33.0634L43.786 34.7965L35.1208 26.1313L35.1209 26.1312L29.9217 20.9321L29.9217 20.9321L29.9215 20.932L24.7224 26.1311L24.7225 26.1313L22.9897 27.8641L9.1254 13.9998L9.12522 13.9999L3.92627 19.1989L0 23.1252V0ZM50.7183 38.2625L28.9808 60H60V47.5442L50.7183 38.2625ZM29.9217 31.3304L38.5869 39.9956L18.5826 60H1.25205L22.9897 38.2624L28.1889 33.0632L29.9217 31.3304ZM9.1254 24.398L0 33.5234V50.8538L17.7906 33.0632L9.1254 24.398Z" fill="url(#paint0_linear_604_438)"/>
<defs>
<linearGradient id="paint0_linear_604_438" x1="0" y1="0" x2="60" y2="60" gradientUnits="userSpaceOnUse">
<stop stop-color="#10B981"/>
<stop offset="1" stop-color="#1054B9"/>
</linearGradient>
</defs>
</svg>
