<svg width="273" height="60" viewBox="0 0 273 60" fill="none" xmlns="http://www.w3.org/2000/svg">
<path d="M86.176 55V4.6H111.952C114.544 4.6 116.92 5.008 119.08 5.824C121.288 6.592 123.16 7.696 124.696 9.136C126.28 10.528 127.504 12.208 128.368 14.176C129.28 16.144 129.736 18.304 129.736 20.656C129.736 23.824 128.872 26.656 127.144 29.152C125.416 31.648 123.136 33.544 120.304 34.84L131.32 55H117.496L107.992 36.64H98.56V55H86.176ZM110.8 15.184H98.56V26.56H110.8C112.72 26.56 114.256 26.032 115.408 24.976C116.608 23.92 117.208 22.552 117.208 20.872C117.208 19.192 116.608 17.824 115.408 16.768C114.256 15.712 112.72 15.184 110.8 15.184ZM136.098 55V4.6H175.842V15.328H148.482V24.4H166.554V34.768H148.482V44.272H176.13V55H136.098ZM179.242 47.296L186.154 38.296C189.178 40.744 192.01 42.52 194.65 43.624C197.29 44.728 200.05 45.28 202.93 45.28C205.762 45.28 207.97 44.848 209.554 43.984C211.186 43.12 212.002 41.92 212.002 40.384C212.002 38.992 211.45 37.912 210.346 37.144C209.29 36.376 207.514 35.776 205.018 35.344L193.93 33.4C189.85 32.68 186.706 31.12 184.498 28.72C182.29 26.32 181.186 23.272 181.186 19.576C181.186 14.728 183.01 10.912 186.658 8.128C190.354 5.296 195.418 3.88 201.85 3.88C205.594 3.88 209.362 4.528 213.154 5.824C216.994 7.12 220.282 8.872 223.018 11.08L216.466 20.224C213.826 18.16 211.234 16.648 208.69 15.688C206.194 14.728 203.626 14.248 200.986 14.248C198.49 14.248 196.498 14.656 195.01 15.472C193.57 16.24 192.85 17.296 192.85 18.64C192.85 19.888 193.306 20.872 194.218 21.592C195.178 22.264 196.714 22.768 198.826 23.104L209.266 24.832C214.114 25.6 217.786 27.208 220.282 29.656C222.826 32.104 224.098 35.272 224.098 39.16C224.098 44.248 222.106 48.28 218.122 51.256C214.186 54.232 208.81 55.72 201.994 55.72C197.962 55.72 193.93 54.976 189.898 53.488C185.914 52 182.362 49.936 179.242 47.296ZM229.754 55V4.6H269.786V15.328H242.138V24.76H260.57V35.128H242.138V55H229.754Z" fill="black"/>
<path fill-rule="evenodd" clip-rule="evenodd" d="M0 0H60V37.146L55.9175 33.0633L50.7184 27.8642L50.7182 27.8641L45.519 33.0633L45.5192 33.0634L43.786 34.7965L35.1208 26.1313L35.1209 26.1312L29.9217 20.9321L29.9217 20.9321L29.9215 20.932L24.7224 26.1311L24.7225 26.1313L22.9897 27.8641L9.1254 13.9998L9.12522 13.9999L3.92627 19.1989L0 23.1252V0ZM50.7183 38.2625L28.9808 60H60V47.5442L50.7183 38.2625ZM29.9217 31.3304L38.5869 39.9956L18.5826 60H1.25205L22.9897 38.2624L28.1889 33.0632L29.9217 31.3304ZM9.1254 24.398L0 33.5234V50.8538L17.7906 33.0632L9.1254 24.398Z" fill="url(#paint0_linear_604_436)"/>
<defs>
<linearGradient id="paint0_linear_604_436" x1="0" y1="0" x2="60" y2="60" gradientUnits="userSpaceOnUse">
<stop stop-color="#10B981"/>
<stop offset="1" stop-color="#1054B9"/>
</linearGradient>
</defs>
</svg>
