<svg width="1224" height="256" viewBox="0 0 1224 256" fill="none" xmlns="http://www.w3.org/2000/svg">
<path d="M242.992 109.944V42.744H275.824C279.216 42.744 282.32 43.256 285.136 44.28C288.016 45.304 290.48 46.744 292.528 48.6C294.576 50.392 296.176 52.568 297.328 55.128C298.48 57.688 299.056 60.504 299.056 63.576C299.056 67.8 297.84 71.576 295.408 74.904C293.04 78.232 289.872 80.696 285.904 82.296L300.784 109.944H285.232L272.08 84.216H256.912V109.944H242.992ZM274.576 54.744H256.912V72.792H274.576C277.712 72.792 280.208 71.96 282.064 70.296C283.984 68.632 284.944 66.456 284.944 63.768C284.944 61.08 283.984 58.904 282.064 57.24C280.208 55.576 277.712 54.744 274.576 54.744Z" fill="black"/>
<path d="M302.074 84.984C302.074 81.336 302.746 77.944 304.09 74.808C305.498 71.608 307.386 68.856 309.754 66.552C312.186 64.184 315.034 62.328 318.298 60.984C321.562 59.64 325.05 58.968 328.762 58.968C332.474 58.968 335.962 59.64 339.226 60.984C342.49 62.328 345.306 64.184 347.674 66.552C350.106 68.856 351.994 71.608 353.338 74.808C354.746 77.944 355.45 81.336 355.45 84.984C355.45 88.632 354.746 92.056 353.338 95.256C351.994 98.392 350.106 101.112 347.674 103.416C345.306 105.72 342.49 107.544 339.226 108.888C335.962 110.232 332.474 110.904 328.762 110.904C325.05 110.904 321.562 110.232 318.298 108.888C315.034 107.544 312.186 105.72 309.754 103.416C307.386 101.112 305.498 98.392 304.09 95.256C302.746 92.056 302.074 88.632 302.074 84.984ZM328.762 99.48C332.602 99.48 335.866 98.072 338.554 95.256C341.242 92.44 342.586 89.016 342.586 84.984C342.586 80.888 341.242 77.432 338.554 74.616C335.866 71.8 332.602 70.392 328.762 70.392C324.922 70.392 321.658 71.8 318.97 74.616C316.282 77.432 314.938 80.888 314.938 84.984C314.938 89.016 316.282 92.44 318.97 95.256C321.658 98.072 324.922 99.48 328.762 99.48Z" fill="black"/>
<path d="M388.389 99.384C390.629 99.384 392.709 98.936 394.629 98.04C396.613 97.144 398.501 95.736 400.293 93.816L408.165 101.976C405.605 104.792 402.533 107 398.949 108.6C395.365 110.136 391.653 110.904 387.813 110.904C384.165 110.904 380.709 110.232 377.445 108.888C374.245 107.544 371.461 105.72 369.093 103.416C366.789 101.112 364.965 98.392 363.621 95.256C362.277 92.056 361.605 88.632 361.605 84.984C361.605 81.336 362.277 77.944 363.621 74.808C364.965 71.608 366.789 68.856 369.093 66.552C371.461 64.184 374.245 62.328 377.445 60.984C380.709 59.64 384.165 58.968 387.813 58.968C391.781 58.968 395.589 59.768 399.237 61.368C402.885 62.904 405.989 65.08 408.549 67.896L400.485 76.44C398.693 74.456 396.773 72.952 394.725 71.928C392.677 70.904 390.469 70.392 388.101 70.392C384.325 70.392 381.125 71.8 378.501 74.616C375.941 77.432 374.661 80.888 374.661 84.984C374.661 89.08 375.973 92.504 378.597 95.256C381.285 98.008 384.549 99.384 388.389 99.384Z" fill="black"/>
<path d="M415.003 109.944V42.744L428.155 39.864V81.048L449.755 59.928H464.635L441.211 82.872L466.075 109.944H449.275L428.155 87.096V109.944H415.003Z" fill="black"/>
<path d="M484.039 112.248L484.807 110.424L465.319 59.928H479.815L492.199 94.008L506.407 59.928H520.615L497.575 113.88C495.015 119.896 492.039 124.184 488.647 126.744C485.255 129.304 480.839 130.584 475.399 130.584C474.247 130.584 473.127 130.52 472.039 130.392C471.015 130.328 470.183 130.2 469.543 130.008V118.68C470.183 118.808 470.855 118.904 471.559 118.968C472.263 119.032 473.127 119.064 474.151 119.064C476.519 119.064 478.503 118.488 480.103 117.336C481.767 116.184 483.079 114.488 484.039 112.248Z" fill="black"/>
<path d="M545.992 109.944V42.744H597.64V54.84H559.912V70.2H584.776V81.912H559.912V97.848H598.024V109.944H545.992Z" fill="black"/>
<path d="M607.003 109.944V59.928H620.155V63.864C622.075 62.264 624.187 61.048 626.491 60.216C628.859 59.384 631.419 58.968 634.171 58.968C639.931 58.968 644.667 60.824 648.379 64.536C652.091 68.248 653.947 73.016 653.947 78.84V109.944H640.795V80.76C640.795 77.624 639.835 75.096 637.915 73.176C636.059 71.256 633.563 70.296 630.427 70.296C628.251 70.296 626.267 70.744 624.475 71.64C622.747 72.472 621.307 73.688 620.155 75.288V109.944H607.003Z" fill="black"/>
<path d="M668.85 95.832V70.968H658.578V59.928H668.85V47.16L682.002 44.184V59.928H696.21V70.968H682.002V93.144C682.002 95.512 682.514 97.176 683.538 98.136C684.562 99.096 686.354 99.576 688.914 99.576C690.13 99.576 691.282 99.512 692.37 99.384C693.458 99.192 694.642 98.872 695.922 98.424V109.176C694.514 109.624 692.818 109.976 690.834 110.232C688.85 110.552 687.154 110.712 685.746 110.712C680.178 110.712 675.954 109.464 673.074 106.968C670.258 104.408 668.85 100.696 668.85 95.832Z" fill="black"/>
<path d="M747.085 103.704C744.013 106.2 740.845 108.024 737.581 109.176C734.381 110.328 730.797 110.904 726.829 110.904C723.053 110.904 719.501 110.232 716.173 108.888C712.909 107.544 710.061 105.72 707.629 103.416C705.261 101.112 703.373 98.392 701.965 95.256C700.621 92.056 699.949 88.632 699.949 84.984C699.949 81.4 700.589 78.04 701.869 74.904C703.213 71.704 705.037 68.952 707.341 66.648C709.645 64.28 712.365 62.424 715.501 61.08C718.701 59.736 722.093 59.064 725.677 59.064C729.197 59.064 732.461 59.768 735.469 61.176C738.541 62.52 741.165 64.376 743.341 66.744C745.581 69.112 747.309 71.96 748.525 75.288C749.805 78.552 750.445 82.104 750.445 85.944V89.4H713.197C714.093 92.536 715.821 95.064 718.381 96.984C720.941 98.904 723.949 99.864 727.405 99.864C729.581 99.864 731.629 99.512 733.549 98.808C735.469 98.104 737.101 97.112 738.445 95.832L747.085 103.704ZM725.389 69.912C722.381 69.912 719.789 70.84 717.613 72.696C715.437 74.488 713.933 76.92 713.101 79.992H737.581C736.749 77.048 735.213 74.648 732.973 72.792C730.797 70.872 728.269 69.912 725.389 69.912Z" fill="black"/>
<path d="M758.503 109.944V59.928H771.655V65.4C773.255 63.224 775.175 61.592 777.415 60.504C779.719 59.352 782.247 58.776 784.999 58.776C786.279 58.84 787.335 58.968 788.167 59.16C789.063 59.288 789.831 59.544 790.471 59.928V71.448C789.511 71 788.455 70.68 787.303 70.488C786.151 70.232 784.967 70.104 783.751 70.104C781.191 70.104 778.823 70.744 776.647 72.024C774.535 73.304 772.871 75.16 771.655 77.592V109.944H758.503Z" fill="black"/>
<path d="M797.597 130.008V59.928H810.557V64.056C812.541 62.456 814.749 61.272 817.181 60.504C819.613 59.672 822.141 59.256 824.765 59.256C828.285 59.256 831.581 59.928 834.653 61.272C837.789 62.616 840.509 64.44 842.813 66.744C845.117 69.048 846.909 71.768 848.189 74.904C849.533 78.04 850.205 81.4 850.205 84.984C850.205 88.568 849.533 91.928 848.189 95.064C846.845 98.2 845.021 100.92 842.717 103.224C840.413 105.528 837.661 107.352 834.461 108.696C831.325 109.976 827.965 110.616 824.381 110.616C821.949 110.616 819.549 110.296 817.181 109.656C814.877 108.952 812.733 107.96 810.749 106.68V130.008H797.597ZM822.653 70.488C820.285 70.488 818.077 70.904 816.029 71.736C813.981 72.504 812.221 73.656 810.749 75.192V94.872C812.157 96.28 813.885 97.4 815.933 98.232C818.045 99.064 820.285 99.48 822.653 99.48C826.749 99.48 830.205 98.104 833.021 95.352C835.837 92.536 837.245 89.08 837.245 84.984C837.245 80.888 835.805 77.464 832.925 74.712C830.109 71.896 826.685 70.488 822.653 70.488Z" fill="black"/>
<path d="M858.253 109.944V59.928H871.405V65.4C873.005 63.224 874.925 61.592 877.165 60.504C879.469 59.352 881.997 58.776 884.749 58.776C886.029 58.84 887.085 58.968 887.917 59.16C888.813 59.288 889.581 59.544 890.221 59.928V71.448C889.261 71 888.205 70.68 887.053 70.488C885.901 70.232 884.717 70.104 883.501 70.104C880.941 70.104 878.573 70.744 876.397 72.024C874.285 73.304 872.621 75.16 871.405 77.592V109.944H858.253Z" fill="black"/>
<path d="M903.875 53.976C901.827 53.976 900.067 53.24 898.595 51.768C897.123 50.296 896.387 48.536 896.387 46.488C896.387 44.44 897.123 42.68 898.595 41.208C900.067 39.736 901.827 39 903.875 39C905.923 39 907.683 39.736 909.155 41.208C910.627 42.68 911.363 44.44 911.363 46.488C911.363 48.536 910.627 50.296 909.155 51.768C907.683 53.24 905.923 53.976 903.875 53.976ZM910.499 59.928V109.944H897.347V59.928H910.499Z" fill="black"/>
<path d="M916.56 103.992L923.088 95.256C926.032 97.176 928.816 98.616 931.44 99.576C934.064 100.472 936.688 100.92 939.312 100.92C942.256 100.92 944.592 100.44 946.32 99.48C948.112 98.52 949.008 97.24 949.008 95.64C949.008 94.36 948.496 93.336 947.472 92.568C946.512 91.8 944.944 91.256 942.768 90.936L933.168 89.496C928.24 88.728 924.464 87.128 921.84 84.696C919.28 82.264 918 79.032 918 75C918 70.2 919.888 66.36 923.664 63.48C927.44 60.6 932.496 59.16 938.832 59.16C942.48 59.16 946.032 59.704 949.488 60.792C952.944 61.816 956.24 63.352 959.376 65.4L953.04 73.848C950.288 72.248 947.664 71.064 945.168 70.296C942.672 69.464 940.144 69.048 937.584 69.048C935.216 69.048 933.296 69.496 931.824 70.392C930.416 71.288 929.712 72.472 929.712 73.944C929.712 75.288 930.224 76.344 931.248 77.112C932.336 77.816 934.096 78.328 936.528 78.648L946.128 80.088C950.992 80.792 954.736 82.392 957.36 84.888C960.048 87.384 961.392 90.552 961.392 94.392C961.392 96.76 960.816 98.968 959.664 101.016C958.576 103 957.072 104.728 955.152 106.2C953.232 107.672 950.928 108.824 948.24 109.656C945.552 110.488 942.64 110.904 939.504 110.904C934.96 110.904 930.704 110.328 926.736 109.176C922.768 107.96 919.376 106.232 916.56 103.992Z" fill="black"/>
<path d="M1013.24 103.704C1010.17 106.2 1007 108.024 1003.74 109.176C1000.54 110.328 996.953 110.904 992.985 110.904C989.209 110.904 985.657 110.232 982.329 108.888C979.065 107.544 976.217 105.72 973.785 103.416C971.417 101.112 969.529 98.392 968.121 95.256C966.777 92.056 966.105 88.632 966.105 84.984C966.105 81.4 966.745 78.04 968.025 74.904C969.369 71.704 971.193 68.952 973.497 66.648C975.801 64.28 978.521 62.424 981.657 61.08C984.857 59.736 988.249 59.064 991.833 59.064C995.353 59.064 998.617 59.768 1001.63 61.176C1004.7 62.52 1007.32 64.376 1009.5 66.744C1011.74 69.112 1013.47 71.96 1014.68 75.288C1015.96 78.552 1016.6 82.104 1016.6 85.944V89.4H979.353C980.249 92.536 981.977 95.064 984.537 96.984C987.097 98.904 990.105 99.864 993.561 99.864C995.737 99.864 997.785 99.512 999.705 98.808C1001.63 98.104 1003.26 97.112 1004.6 95.832L1013.24 103.704ZM991.545 69.912C988.537 69.912 985.945 70.84 983.769 72.696C981.593 74.488 980.089 76.92 979.257 79.992H1003.74C1002.91 77.048 1001.37 74.648 999.129 72.792C996.953 70.872 994.425 69.912 991.545 69.912Z" fill="black"/>
<path d="M238 198.424L242.896 193.336C246.352 196.984 250.032 199.768 253.936 201.688C257.904 203.544 262.064 204.472 266.416 204.472C271.664 204.472 275.984 203.224 279.376 200.728C282.768 198.232 284.464 195.064 284.464 191.224C284.464 187.768 283.248 185.112 280.816 183.256C278.448 181.4 274.512 180.024 269.008 179.128L259.312 177.592C252.848 176.568 248.08 174.68 245.008 171.928C241.936 169.112 240.4 165.336 240.4 160.6C240.4 155.032 242.576 150.52 246.928 147.064C251.28 143.608 256.976 141.88 264.016 141.88C268.688 141.88 273.328 142.648 277.936 144.184C282.544 145.72 286.736 147.928 290.512 150.808L286.288 156.568C282.64 153.816 278.928 151.736 275.152 150.328C271.376 148.92 267.568 148.216 263.728 148.216C258.928 148.216 255.024 149.336 252.016 151.576C249.072 153.752 247.6 156.568 247.6 160.024C247.6 163.16 248.656 165.56 250.768 167.224C252.88 168.888 256.368 170.104 261.232 170.872L270.832 172.408C278.128 173.624 283.44 175.704 286.768 178.648C290.16 181.592 291.856 185.656 291.856 190.84C291.856 193.784 291.216 196.504 289.936 199C288.72 201.432 286.96 203.544 284.656 205.336C282.416 207.064 279.696 208.44 276.496 209.464C273.36 210.424 269.904 210.904 266.128 210.904C260.816 210.904 255.696 209.848 250.768 207.736C245.904 205.56 241.648 202.456 238 198.424Z" fill="black"/>
<path d="M299.284 185.848C299.284 182.392 299.924 179.128 301.204 176.056C302.484 172.984 304.212 170.328 306.388 168.088C308.628 165.848 311.252 164.088 314.26 162.808C317.268 161.528 320.468 160.888 323.86 160.888C327.252 160.888 330.42 161.528 333.364 162.808C336.372 164.088 338.964 165.848 341.14 168.088C343.38 170.328 345.14 172.984 346.42 176.056C347.7 179.128 348.34 182.392 348.34 185.848C348.34 189.368 347.7 192.664 346.42 195.736C345.14 198.808 343.38 201.464 341.14 203.704C338.964 205.944 336.372 207.704 333.364 208.984C330.42 210.264 327.252 210.904 323.86 210.904C320.468 210.904 317.268 210.264 314.26 208.984C311.252 207.704 308.628 205.944 306.388 203.704C304.212 201.464 302.484 198.808 301.204 195.736C299.924 192.664 299.284 189.368 299.284 185.848ZM323.86 204.568C326.292 204.568 328.564 204.088 330.676 203.128C332.852 202.168 334.708 200.856 336.244 199.192C337.844 197.464 339.092 195.48 339.988 193.24C340.884 190.936 341.332 188.472 341.332 185.848C341.332 183.224 340.884 180.792 339.988 178.552C339.092 176.248 337.844 174.264 336.244 172.6C334.708 170.936 332.852 169.624 330.676 168.664C328.564 167.704 326.292 167.224 323.86 167.224C321.428 167.224 319.124 167.704 316.948 168.664C314.836 169.624 312.98 170.936 311.38 172.6C309.844 174.264 308.596 176.248 307.636 178.552C306.74 180.792 306.292 183.224 306.292 185.848C306.292 188.472 306.74 190.936 307.636 193.24C308.532 195.48 309.748 197.464 311.284 199.192C312.884 200.856 314.772 202.168 316.948 203.128C319.124 204.088 321.428 204.568 323.86 204.568Z" fill="black"/>
<path d="M350.326 161.848H361.654V152.728C361.654 148.056 362.934 144.472 365.494 141.976C368.054 139.416 371.734 138.136 376.534 138.136C377.814 138.136 378.966 138.2 379.99 138.328C381.014 138.456 382.006 138.68 382.966 139V145.336C381.878 145.016 380.886 144.792 379.99 144.664C379.094 144.472 378.102 144.376 377.014 144.376C374.198 144.376 372.086 145.08 370.678 146.488C369.334 147.832 368.662 149.976 368.662 152.92V161.848H382.966V167.896H368.662V209.944H361.654V167.896H350.326V161.848Z" fill="black"/>
<path d="M397.538 199.192V167.896H387.17V161.848H397.538V149.656L404.546 147.832V161.848H419.042V167.896H404.546V197.368C404.546 199.928 405.122 201.784 406.274 202.936C407.426 204.024 409.314 204.568 411.938 204.568C413.282 204.568 414.466 204.472 415.49 204.28C416.578 204.088 417.73 203.768 418.946 203.32V209.56C417.73 210.008 416.354 210.328 414.818 210.52C413.346 210.712 411.906 210.808 410.498 210.808C406.338 210.808 403.138 209.816 400.898 207.832C398.658 205.848 397.538 202.968 397.538 199.192Z" fill="black"/>
<path d="M443.33 209.944H436.418L422.882 161.848H429.89L440.258 200.248L452.258 161.848H458.594L470.498 200.248L480.962 161.848H487.682L474.05 209.944H467.234L455.33 171.448L443.33 209.944Z" fill="black"/>
<path d="M510.066 210.808C504.818 210.808 500.53 209.464 497.202 206.776C493.938 204.088 492.306 200.6 492.306 196.312C492.306 191.832 494.034 188.28 497.49 185.656C500.946 182.968 505.618 181.624 511.506 181.624C514.066 181.624 516.53 181.912 518.898 182.488C521.33 183.064 523.57 183.864 525.618 184.888V178.552C525.618 174.712 524.53 171.832 522.354 169.912C520.178 167.928 517.01 166.936 512.85 166.936C510.482 166.936 508.082 167.288 505.65 167.992C503.282 168.632 500.658 169.688 497.778 171.16L495.09 165.688C498.546 164.024 501.746 162.808 504.69 162.04C507.634 161.272 510.578 160.888 513.522 160.888C519.602 160.888 524.274 162.328 527.538 165.208C530.866 168.088 532.53 172.216 532.53 177.592V209.944H525.618V205.24C523.442 207.096 521.042 208.504 518.418 209.464C515.858 210.36 513.074 210.808 510.066 210.808ZM499.122 196.12C499.122 198.808 500.242 201.016 502.482 202.744C504.786 204.408 507.73 205.24 511.314 205.24C514.194 205.24 516.818 204.792 519.186 203.896C521.554 203 523.698 201.592 525.618 199.672V190.648C523.634 189.304 521.49 188.344 519.186 187.768C516.946 187.128 514.45 186.808 511.698 186.808C507.858 186.808 504.786 187.672 502.482 189.4C500.242 191.064 499.122 193.304 499.122 196.12Z" fill="black"/>
<path d="M544.398 209.944V161.848H551.502V168.664C552.91 166.168 554.766 164.248 557.07 162.904C559.374 161.496 561.998 160.792 564.942 160.792C565.838 160.792 566.638 160.856 567.342 160.984C568.046 161.048 568.75 161.208 569.454 161.464V167.992C568.622 167.736 567.79 167.544 566.958 167.416C566.126 167.224 565.294 167.128 564.462 167.128C561.518 167.128 558.926 167.992 556.686 169.72C554.446 171.384 552.718 173.816 551.502 177.016V209.944H544.398Z" fill="black"/>
<path d="M614.629 204.856C611.941 206.84 609.125 208.344 606.181 209.368C603.301 210.328 600.133 210.808 596.677 210.808C593.221 210.808 589.957 210.168 586.885 208.888C583.877 207.608 581.253 205.848 579.013 203.608C576.837 201.368 575.109 198.744 573.829 195.736C572.549 192.664 571.909 189.368 571.909 185.848C571.909 182.392 572.517 179.16 573.733 176.152C575.013 173.144 576.709 170.52 578.821 168.28C580.933 166.04 583.429 164.28 586.309 163C589.253 161.72 592.357 161.08 595.621 161.08C598.821 161.08 601.797 161.72 604.549 163C607.365 164.28 609.765 166.04 611.749 168.28C613.797 170.52 615.397 173.144 616.549 176.152C617.765 179.16 618.373 182.392 618.373 185.848V188.056H578.917C579.429 192.792 581.381 196.728 584.773 199.864C588.165 203 592.229 204.568 596.965 204.568C599.461 204.568 601.893 204.184 604.261 203.416C606.629 202.648 608.613 201.56 610.213 200.152L614.629 204.856ZM595.429 167.32C591.269 167.32 587.653 168.728 584.581 171.544C581.573 174.36 579.749 177.976 579.109 182.392H611.269C610.629 178.168 608.805 174.616 605.797 171.736C602.853 168.792 599.397 167.32 595.429 167.32Z" fill="black"/>
<path d="M650.273 209.944V142.744H698.37V149.272H657.665V173.272H684.354V179.704H657.665V209.944H650.273Z" fill="black"/>
<path d="M697.159 185.848C697.159 182.392 697.799 179.128 699.079 176.056C700.359 172.984 702.087 170.328 704.263 168.088C706.503 165.848 709.127 164.088 712.135 162.808C715.143 161.528 718.343 160.888 721.735 160.888C725.127 160.888 728.295 161.528 731.239 162.808C734.247 164.088 736.839 165.848 739.015 168.088C741.255 170.328 743.015 172.984 744.295 176.056C745.575 179.128 746.215 182.392 746.215 185.848C746.215 189.368 745.575 192.664 744.295 195.736C743.015 198.808 741.255 201.464 739.015 203.704C736.839 205.944 734.247 207.704 731.239 208.984C728.295 210.264 725.127 210.904 721.735 210.904C718.343 210.904 715.143 210.264 712.135 208.984C709.127 207.704 706.503 205.944 704.263 203.704C702.087 201.464 700.359 198.808 699.079 195.736C697.799 192.664 697.159 189.368 697.159 185.848ZM721.735 204.568C724.167 204.568 726.439 204.088 728.551 203.128C730.727 202.168 732.583 200.856 734.119 199.192C735.719 197.464 736.967 195.48 737.863 193.24C738.759 190.936 739.207 188.472 739.207 185.848C739.207 183.224 738.759 180.792 737.863 178.552C736.967 176.248 735.719 174.264 734.119 172.6C732.583 170.936 730.727 169.624 728.551 168.664C726.439 167.704 724.167 167.224 721.735 167.224C719.303 167.224 716.999 167.704 714.823 168.664C712.711 169.624 710.855 170.936 709.255 172.6C707.719 174.264 706.471 176.248 705.511 178.552C704.615 180.792 704.167 183.224 704.167 185.848C704.167 188.472 704.615 190.936 705.511 193.24C706.407 195.48 707.623 197.464 709.159 199.192C710.759 200.856 712.647 202.168 714.823 203.128C716.999 204.088 719.303 204.568 721.735 204.568Z" fill="black"/>
<path d="M762.902 161.848V190.84C762.902 195.064 764.118 198.424 766.55 200.92C768.982 203.416 772.246 204.664 776.342 204.664C779.222 204.664 781.782 204.024 784.022 202.744C786.326 201.4 788.182 199.544 789.59 197.176V161.848H796.694V209.944H789.59V204.376C787.734 206.552 785.526 208.184 782.966 209.272C780.47 210.36 777.654 210.904 774.518 210.904C769.014 210.904 764.534 209.176 761.078 205.72C757.622 202.264 755.894 197.784 755.894 192.28V161.848H762.902Z" fill="black"/>
<path d="M808.773 209.944V161.848H815.877V167.512C817.733 165.336 819.941 163.704 822.501 162.616C825.061 161.464 827.909 160.888 831.045 160.888C836.485 160.888 840.933 162.616 844.389 166.072C847.845 169.528 849.573 174.008 849.573 179.512V209.944H842.565V180.952C842.565 176.728 841.349 173.368 838.917 170.872C836.485 168.376 833.221 167.128 829.125 167.128C826.245 167.128 823.653 167.768 821.349 169.048C819.109 170.328 817.285 172.152 815.877 174.52V209.944H808.773Z" fill="black"/>
<path d="M898.997 209.944V204.856C896.949 206.776 894.581 208.248 891.893 209.272C889.269 210.232 886.453 210.712 883.445 210.712C880.053 210.712 876.885 210.072 873.941 208.792C870.997 207.512 868.437 205.784 866.261 203.608C864.085 201.368 862.357 198.712 861.077 195.64C859.861 192.568 859.253 189.304 859.253 185.848C859.253 182.392 859.861 179.16 861.077 176.152C862.357 173.08 864.085 170.456 866.261 168.28C868.437 166.04 870.997 164.28 873.941 163C876.949 161.72 880.149 161.08 883.541 161.08C886.293 161.08 888.981 161.56 891.605 162.52C894.293 163.416 896.725 164.76 898.901 166.552V142.744L906.005 141.112V209.944H898.997ZM866.261 185.752C866.261 188.376 866.709 190.84 867.605 193.144C868.565 195.448 869.845 197.432 871.445 199.096C873.045 200.76 874.933 202.072 877.109 203.032C879.285 203.992 881.621 204.472 884.117 204.472C887.125 204.472 889.909 203.896 892.469 202.744C895.093 201.528 897.237 199.864 898.901 197.752V173.944C897.237 171.896 895.093 170.296 892.469 169.144C889.845 167.928 887.061 167.32 884.117 167.32C879.125 167.32 874.901 169.08 871.445 172.6C867.989 176.12 866.261 180.504 866.261 185.752Z" fill="black"/>
<path d="M933.254 210.808C928.006 210.808 923.718 209.464 920.39 206.776C917.126 204.088 915.494 200.6 915.494 196.312C915.494 191.832 917.222 188.28 920.678 185.656C924.134 182.968 928.806 181.624 934.694 181.624C937.254 181.624 939.718 181.912 942.086 182.488C944.518 183.064 946.758 183.864 948.806 184.888V178.552C948.806 174.712 947.718 171.832 945.542 169.912C943.366 167.928 940.198 166.936 936.038 166.936C933.67 166.936 931.27 167.288 928.838 167.992C926.47 168.632 923.846 169.688 920.966 171.16L918.278 165.688C921.734 164.024 924.934 162.808 927.878 162.04C930.822 161.272 933.766 160.888 936.71 160.888C942.79 160.888 947.462 162.328 950.726 165.208C954.054 168.088 955.718 172.216 955.718 177.592V209.944H948.806V205.24C946.63 207.096 944.23 208.504 941.606 209.464C939.046 210.36 936.262 210.808 933.254 210.808ZM922.31 196.12C922.31 198.808 923.43 201.016 925.67 202.744C927.974 204.408 930.918 205.24 934.502 205.24C937.382 205.24 940.006 204.792 942.374 203.896C944.742 203 946.886 201.592 948.806 199.672V190.648C946.822 189.304 944.678 188.344 942.374 187.768C940.134 187.128 937.638 186.808 934.886 186.808C931.046 186.808 927.974 187.672 925.67 189.4C923.43 191.064 922.31 193.304 922.31 196.12Z" fill="black"/>
<path d="M971.663 199.192V167.896H961.295V161.848H971.663V149.656L978.671 147.832V161.848H993.167V167.896H978.671V197.368C978.671 199.928 979.247 201.784 980.399 202.936C981.551 204.024 983.439 204.568 986.063 204.568C987.407 204.568 988.591 204.472 989.615 204.28C990.703 204.088 991.855 203.768 993.071 203.32V209.56C991.855 210.008 990.479 210.328 988.943 210.52C987.471 210.712 986.031 210.808 984.623 210.808C980.463 210.808 977.263 209.816 975.023 207.832C972.783 205.848 971.663 202.968 971.663 199.192Z" fill="black"/>
<path d="M1004.33 152.632C1003.05 152.632 1001.93 152.152 1000.97 151.192C1000.01 150.232 999.525 149.112 999.525 147.832C999.525 146.488 1000.01 145.368 1000.97 144.472C1001.93 143.512 1003.05 143.032 1004.33 143.032C1005.67 143.032 1006.79 143.512 1007.69 144.472C1008.65 145.368 1009.13 146.488 1009.13 147.832C1009.13 149.112 1008.65 150.232 1007.69 151.192C1006.79 152.152 1005.67 152.632 1004.33 152.632ZM1007.88 161.848V209.944H1000.77V161.848H1007.88Z" fill="black"/>
<path d="M1017.78 185.848C1017.78 182.392 1018.42 179.128 1019.7 176.056C1020.98 172.984 1022.71 170.328 1024.89 168.088C1027.13 165.848 1029.75 164.088 1032.76 162.808C1035.77 161.528 1038.97 160.888 1042.36 160.888C1045.75 160.888 1048.92 161.528 1051.86 162.808C1054.87 164.088 1057.46 165.848 1059.64 168.088C1061.88 170.328 1063.64 172.984 1064.92 176.056C1066.2 179.128 1066.84 182.392 1066.84 185.848C1066.84 189.368 1066.2 192.664 1064.92 195.736C1063.64 198.808 1061.88 201.464 1059.64 203.704C1057.46 205.944 1054.87 207.704 1051.86 208.984C1048.92 210.264 1045.75 210.904 1042.36 210.904C1038.97 210.904 1035.77 210.264 1032.76 208.984C1029.75 207.704 1027.13 205.944 1024.89 203.704C1022.71 201.464 1020.98 198.808 1019.7 195.736C1018.42 192.664 1017.78 189.368 1017.78 185.848ZM1042.36 204.568C1044.79 204.568 1047.06 204.088 1049.18 203.128C1051.35 202.168 1053.21 200.856 1054.74 199.192C1056.34 197.464 1057.59 195.48 1058.49 193.24C1059.38 190.936 1059.83 188.472 1059.83 185.848C1059.83 183.224 1059.38 180.792 1058.49 178.552C1057.59 176.248 1056.34 174.264 1054.74 172.6C1053.21 170.936 1051.35 169.624 1049.18 168.664C1047.06 167.704 1044.79 167.224 1042.36 167.224C1039.93 167.224 1037.62 167.704 1035.45 168.664C1033.34 169.624 1031.48 170.936 1029.88 172.6C1028.34 174.264 1027.1 176.248 1026.14 178.552C1025.24 180.792 1024.79 183.224 1024.79 185.848C1024.79 188.472 1025.24 190.936 1026.14 193.24C1027.03 195.48 1028.25 197.464 1029.78 199.192C1031.38 200.856 1033.27 202.168 1035.45 203.128C1037.62 204.088 1039.93 204.568 1042.36 204.568Z" fill="black"/>
<path d="M1076.71 209.944V161.848H1083.81V167.512C1085.67 165.336 1087.88 163.704 1090.44 162.616C1093 161.464 1095.85 160.888 1098.98 160.888C1104.42 160.888 1108.87 162.616 1112.33 166.072C1115.78 169.528 1117.51 174.008 1117.51 179.512V209.944H1110.5V180.952C1110.5 176.728 1109.29 173.368 1106.85 170.872C1104.42 168.376 1101.16 167.128 1097.06 167.128C1094.18 167.128 1091.59 167.768 1089.29 169.048C1087.05 170.328 1085.22 172.152 1083.81 174.52V209.944H1076.71Z" fill="black"/>
<path d="M1122.5 157.968V146.232H1118.61V143.964H1122.5V139.392L1125.13 138.708V143.964H1130.56V146.232H1125.13V157.284C1125.13 158.244 1125.34 158.94 1125.78 159.372C1126.21 159.78 1126.92 159.984 1127.9 159.984C1128.4 159.984 1128.85 159.948 1129.23 159.876C1129.64 159.804 1130.07 159.684 1130.53 159.516V161.856C1130.07 162.024 1129.56 162.144 1128.98 162.216C1128.43 162.288 1127.89 162.324 1127.36 162.324C1125.8 162.324 1124.6 161.952 1123.76 161.208C1122.92 160.464 1122.5 159.384 1122.5 157.968ZM1133.42 162V143.964H1136.08V145.944C1136.75 145.176 1137.53 144.6 1138.42 144.216C1139.31 143.808 1140.29 143.604 1141.37 143.604C1142.62 143.604 1143.74 143.904 1144.72 144.504C1145.73 145.08 1146.51 145.872 1147.06 146.88C1147.8 145.776 1148.69 144.96 1149.72 144.432C1150.78 143.88 1151.96 143.604 1153.25 143.604C1155.2 143.604 1156.78 144.252 1158 145.548C1159.25 146.844 1159.88 148.524 1159.88 150.588V162H1157.25V151.128C1157.25 149.544 1156.83 148.284 1155.99 147.348C1155.15 146.412 1154.01 145.944 1152.57 145.944C1151.58 145.944 1150.68 146.196 1149.87 146.7C1149.05 147.204 1148.36 147.936 1147.78 148.896C1147.83 149.16 1147.86 149.436 1147.89 149.724C1147.94 149.988 1147.96 150.276 1147.96 150.588V162H1145.33V151.128C1145.33 149.544 1144.91 148.284 1144.07 147.348C1143.23 146.412 1142.1 145.944 1140.69 145.944C1139.73 145.944 1138.85 146.172 1138.06 146.628C1137.29 147.06 1136.63 147.708 1136.08 148.572V162H1133.42Z" fill="black"/>
<path d="M47 43H215V147.009L189.011 121.02L169.601 140.43L130.781 101.61L111.371 121.019L72.5511 82.1993L47 107.75V43Z" fill="url(#paint0_linear_122_224)"/>
<path d="M189.011 150.135L128.146 211H215V176.124L189.011 150.135Z" fill="url(#paint1_linear_122_224)"/>
<path d="M130.781 130.725L155.043 154.988L99.0312 211H50.5058L130.781 130.725Z" fill="url(#paint2_linear_122_224)"/>
<path d="M72.5511 111.314L47 136.866V185.391L96.8137 135.577L72.5511 111.314Z" fill="url(#paint3_linear_122_224)"/>
<defs>
<linearGradient id="paint0_linear_122_224" x1="47" y1="43" x2="215" y2="211" gradientUnits="userSpaceOnUse">
<stop stop-color="#10B981"/>
<stop offset="1" stop-color="#1054B9"/>
</linearGradient>
<linearGradient id="paint1_linear_122_224" x1="47" y1="43" x2="215" y2="211" gradientUnits="userSpaceOnUse">
<stop stop-color="#10B981"/>
<stop offset="1" stop-color="#1054B9"/>
</linearGradient>
<linearGradient id="paint2_linear_122_224" x1="47" y1="43" x2="215" y2="211" gradientUnits="userSpaceOnUse">
<stop stop-color="#10B981"/>
<stop offset="1" stop-color="#1054B9"/>
</linearGradient>
<linearGradient id="paint3_linear_122_224" x1="47" y1="43" x2="215" y2="211" gradientUnits="userSpaceOnUse">
<stop stop-color="#10B981"/>
<stop offset="1" stop-color="#1054B9"/>
</linearGradient>
</defs>
</svg>
