<svg width="1182" height="322" viewBox="0 0 1182 322" fill="none" xmlns="http://www.w3.org/2000/svg">
<path d="M270.625 0.000793457H97.7074C93.6888 0.000793457 89.9753 2.1446 87.966 5.62505L1.5072 155.376C-0.502076 158.856 -0.502076 163.144 1.5072 166.624L87.966 316.376C89.9753 319.856 93.6888 322 97.7074 322H270.625C274.643 322 278.357 319.856 280.366 316.376L366.825 166.624C368.834 163.144 368.834 158.856 366.825 155.376L280.366 5.62505C278.357 2.1446 274.643 0.000793457 270.625 0.000793457Z" fill="#FFD45D"/>
<path d="M368.332 161H294.609L239.387 256.646L276.249 320.492C277.931 319.521 279.362 318.115 280.366 316.375L366.825 166.624C367.83 164.884 368.332 162.942 368.332 161Z" fill="#007362"/>
<path d="M239.387 256.646H128.945L92.083 320.492C93.765 321.463 95.698 321.999 97.7073 321.999H270.625C272.634 321.999 274.567 321.463 276.249 320.492L239.387 256.646Z" fill="#00984C"/>
<path d="M128.945 256.646L73.7233 161H0C0 162.942 0.50214 164.884 1.50714 166.624L87.9659 316.376C88.9709 318.116 90.4011 319.522 92.083 320.493L128.945 256.646Z" fill="#41A93D"/>
<path d="M128.945 65.3538L92.083 1.50714C90.4011 2.47833 88.9702 3.88403 87.9659 5.62426L1.50714 155.376C0.50214 157.116 0 159.058 0 161H73.7233L128.945 65.3538Z" fill="#7DB82F"/>
<path d="M128.945 65.3538H239.387L276.249 1.50714C274.567 0.535953 272.634 0 270.625 0H97.7073C95.698 0 93.765 0.535953 92.083 1.50714L128.945 65.3538Z" fill="#41A93D"/>
<path d="M239.387 65.3538L294.609 161H368.332C368.332 159.058 367.83 157.116 366.825 155.376L280.366 5.62426C279.362 3.88403 277.931 2.47833 276.249 1.50714L239.387 65.3538Z" fill="#00984C"/>
<path d="M239.388 65.3538H128.944L73.7231 161L128.944 256.646H239.388L294.609 161L239.388 65.3538Z" fill="#008658"/>
<path d="M130.935 58.6569L137.975 53.3988C139.577 52.2025 141.696 53.9894 140.788 55.7707L136.795 63.5977C136.369 64.4344 136.621 65.4567 137.388 65.9984L144.564 71.0687C146.197 72.2226 145.152 74.7909 143.178 74.4765L134.5 73.0974C133.572 72.9499 132.677 73.506 132.399 74.4031L129.794 82.7949C129.201 84.7042 126.436 84.5042 126.124 82.5294L124.754 73.8506C124.607 72.9233 123.802 72.2442 122.863 72.2564L114.077 72.3722C112.078 72.3989 111.413 69.7069 113.195 68.8004L121.026 64.815C121.863 64.3891 122.26 63.4136 121.958 62.5244L119.132 54.2046C118.489 52.3111 120.844 50.8478 122.258 52.2622L128.467 58.4785C129.132 59.1425 130.182 59.2188 130.935 58.6569Z" fill="white"/>
<path d="M430 164.81V11.5394H506.626C516.668 11.5394 525.473 13.583 533.041 17.6702C540.755 21.7574 546.795 27.4504 551.161 34.749C555.527 41.9016 557.71 50.2221 557.71 59.7103C557.71 68.7606 555.527 76.862 551.161 84.0147C546.795 91.1673 540.755 96.7873 533.041 100.874C525.328 104.962 516.523 107.005 506.626 107.005H461.655V164.81H430ZM461.655 80.7303H503.133C509.973 80.7303 515.431 78.8327 519.506 75.0374C523.727 71.2421 525.837 66.2061 525.837 59.9292C525.837 53.5065 523.727 48.3974 519.506 44.6021C515.431 40.8068 509.973 38.9092 503.133 38.9092H461.655V80.7303Z" fill="black"/>
<path d="M621.638 167C610.286 167 599.953 164.372 590.639 159.117C581.47 153.862 574.193 146.783 568.808 137.878C563.423 128.974 560.73 118.975 560.73 107.881C560.73 96.7873 563.277 86.7882 568.371 77.8838C573.611 68.9795 580.669 61.8999 589.547 56.6449C598.425 51.3899 608.322 48.7623 619.237 48.7623C630.152 48.7623 639.831 51.4628 648.272 56.8638C656.713 62.2648 663.335 69.5634 668.138 78.7597C673.086 87.9559 675.56 98.393 675.56 110.071V117.953H591.294C592.603 122.478 594.714 126.566 597.624 130.215C600.681 133.864 604.392 136.711 608.758 138.754C613.27 140.798 618.073 141.82 623.166 141.82C628.26 141.82 632.918 141.017 637.138 139.411C641.504 137.806 645.216 135.543 648.272 132.623L667.92 150.578C660.934 156.271 653.73 160.431 646.307 163.059C639.03 165.686 630.807 167 621.638 167ZM590.857 96.4953H646.089C645.07 91.9702 643.178 88.0289 640.413 84.6716C637.793 81.1682 634.591 78.4677 630.807 76.5701C627.169 74.5265 623.094 73.5047 618.582 73.5047C613.925 73.5047 609.704 74.4535 605.92 76.3511C602.136 78.2488 598.934 80.9493 596.315 84.4526C593.84 87.81 592.021 91.8242 590.857 96.4953Z" fill="black"/>
<path d="M693.885 164.81V50.733H723.793V63.4326C727.431 58.4695 731.797 54.6742 736.891 52.0467C741.985 49.4192 747.734 48.1055 754.137 48.1055C759.668 48.2514 763.816 49.1273 766.581 50.733V77.008C764.398 75.9862 761.996 75.2563 759.377 74.8184C756.757 74.2345 754.065 73.9426 751.299 73.9426C745.478 73.9426 740.166 75.4023 735.363 78.3218C730.56 81.2412 726.703 85.4014 723.793 90.8024V164.81H693.885Z" fill="black"/>
<path d="M782.998 164.81V50.733H812.907V164.81H782.998ZM797.843 37.1575C793.186 37.1575 789.184 35.4789 785.836 32.1215C782.489 28.7641 780.815 24.7499 780.815 20.0788C780.815 15.2617 782.489 11.2474 785.836 8.03605C789.184 4.67868 793.186 3 797.843 3C802.646 3 806.648 4.67868 809.85 8.03605C813.198 11.2474 814.871 15.2617 814.871 20.0788C814.871 24.7499 813.198 28.7641 809.85 32.1215C806.648 35.4789 802.646 37.1575 797.843 37.1575Z" fill="black"/>
<path d="M888.908 166.343C878.138 166.343 868.387 163.716 859.655 158.461C850.923 153.206 843.937 146.199 838.698 137.441C833.604 128.536 831.057 118.61 831.057 107.662C831.057 96.7143 833.604 86.8611 838.698 78.1028C843.937 69.1985 850.996 62.1918 859.873 57.0828C868.751 51.8278 878.721 49.2003 889.782 49.2003C895.458 49.2003 900.915 50.0031 906.155 51.6088C911.394 53.0685 916.27 55.2581 920.781 58.1776V11.5394L950.689 6.50333V164.81H921.218V155.395C911.903 162.694 901.134 166.343 888.908 166.343ZM893.711 140.725C899.242 140.725 904.263 139.849 908.774 138.097C913.432 136.2 917.434 133.426 920.781 129.777V85.3284C917.434 81.9711 913.432 79.3436 908.774 77.4459C904.117 75.5483 899.096 74.5995 893.711 74.5995C887.453 74.5995 881.777 76.0592 876.683 78.9786C871.735 81.7521 867.805 85.6934 864.894 90.8024C861.984 95.7655 860.528 101.385 860.528 107.662C860.528 113.939 861.984 119.559 864.894 124.522C867.805 129.485 871.735 133.426 876.683 136.346C881.777 139.265 887.453 140.725 893.711 140.725Z" fill="black"/>
<path d="M1029.47 167C1018.12 167 1007.86 164.372 998.686 159.117C989.517 153.862 982.24 146.783 976.856 137.878C971.471 128.974 968.778 118.975 968.778 107.881C968.778 96.7873 971.398 86.7882 976.637 77.8838C982.022 68.8336 989.299 61.6809 998.468 56.4259C1007.78 51.1709 1018.12 48.5434 1029.47 48.5434C1040.82 48.5434 1051.08 51.1709 1060.25 56.4259C1069.56 61.6809 1076.84 68.8336 1082.08 77.8838C1087.46 86.7882 1090.16 96.7873 1090.16 107.881C1090.16 118.975 1087.46 128.974 1082.08 137.878C1076.84 146.783 1069.64 153.862 1060.47 159.117C1051.3 164.372 1040.97 167 1029.47 167ZM1029.47 140.944C1035.43 140.944 1040.75 139.484 1045.4 136.565C1050.21 133.645 1053.99 129.704 1056.76 124.741C1059.67 119.632 1061.12 114.012 1061.12 107.881C1061.12 101.604 1059.67 95.9844 1056.76 91.0214C1053.99 86.0583 1050.21 82.117 1045.4 79.1976C1040.75 76.1322 1035.43 74.5995 1029.47 74.5995C1023.65 74.5995 1018.33 76.1322 1013.53 79.1976C1008.73 82.117 1004.94 86.0583 1002.18 91.0214C999.414 95.9844 998.031 101.604 998.031 107.881C998.031 114.012 999.414 119.632 1002.18 124.741C1004.94 129.704 1008.73 133.645 1013.53 136.565C1018.33 139.484 1023.65 140.944 1029.47 140.944Z" fill="black"/>
<path d="M1157.99 166.562C1145.32 166.562 1135.72 163.716 1129.17 158.023C1122.77 152.184 1119.56 143.717 1119.56 132.623V75.6943H1096.21V50.733H1119.56V21.6115L1149.47 14.8238V50.733H1182V75.6943H1149.47V126.493C1149.47 131.748 1150.64 135.543 1152.97 137.878C1155.29 140.068 1159.37 141.163 1165.19 141.163C1168.1 141.163 1170.72 141.017 1173.05 140.725C1175.52 140.287 1178.22 139.557 1181.13 138.535V163.278C1178.07 164.3 1174.21 165.102 1169.56 165.686C1165.04 166.27 1161.19 166.562 1157.99 166.562Z" fill="black"/>
<path d="M430 291.377V201.441H468.891C474.795 201.441 479.929 202.426 484.293 204.396C488.657 206.366 492.037 209.15 494.433 212.747C496.829 216.259 498.027 220.413 498.027 225.21C498.027 229.578 496.914 233.433 494.689 236.773C492.465 240.113 489.341 242.769 485.32 244.739C490.368 246.537 494.304 249.278 497.128 252.961C500.037 256.559 501.492 260.799 501.492 265.681C501.492 270.906 500.209 275.445 497.641 279.3C495.16 283.154 491.566 286.152 486.86 288.293C482.239 290.349 476.806 291.377 470.559 291.377H430ZM443.477 239.6H468.121C473.169 239.6 477.191 238.4 480.186 236.002C483.18 233.604 484.678 230.349 484.678 226.238C484.678 222.126 483.18 218.872 480.186 216.473C477.191 214.075 473.169 212.876 468.121 212.876H443.477V239.6ZM443.477 279.942H469.532C475.18 279.942 479.629 278.615 482.881 275.959C486.218 273.304 487.887 269.707 487.887 265.167C487.887 260.713 486.218 257.158 482.881 254.503C479.629 251.762 475.18 250.392 469.532 250.392H443.477V279.942Z" fill="black"/>
<path d="M539.565 292.662C534.517 292.662 530.067 291.591 526.217 289.45C522.366 287.308 519.371 284.31 517.232 280.456C515.093 276.516 514.023 272.019 514.023 266.966V225.981H526.73V264.782C526.73 269.921 528.185 273.989 531.094 276.987C534.089 279.985 538.068 281.484 543.031 281.484C546.539 281.484 549.662 280.756 552.401 279.3C555.139 277.758 557.364 275.617 559.075 272.876V225.981H571.91V291.377H559.075V284.696C554.026 290.006 547.523 292.662 539.565 292.662Z" fill="black"/>
<path d="M588.067 291.377V225.981H600.903V291.377H588.067ZM594.485 215.445C592.346 215.445 590.506 214.675 588.966 213.133C587.426 211.505 586.656 209.621 586.656 207.48C586.656 205.253 587.426 203.411 588.966 201.955C590.506 200.413 592.346 199.642 594.485 199.642C596.71 199.642 598.592 200.413 600.133 201.955C601.673 203.411 602.443 205.253 602.443 207.48C602.443 209.621 601.673 211.505 600.133 213.133C598.592 214.675 596.71 215.445 594.485 215.445Z" fill="black"/>
<path d="M616.982 291.377V201.441L629.817 199V291.377H616.982Z" fill="black"/>
<path d="M675.93 292.405C669.855 292.405 664.293 290.906 659.245 287.908C654.196 284.91 650.217 280.884 647.308 275.831C644.399 270.692 642.944 264.953 642.944 258.615C642.944 252.276 644.399 246.58 647.308 241.527C650.303 236.473 654.324 232.448 659.373 229.45C664.421 226.452 670.026 224.953 676.187 224.953C679.781 224.953 683.246 225.51 686.584 226.623C689.921 227.737 693.001 229.364 695.825 231.505V201.441L708.66 199V291.377H695.953V285.081C690.391 289.964 683.717 292.405 675.93 292.405ZM677.599 281.227C681.364 281.227 684.787 280.542 687.867 279.171C691.033 277.801 693.686 275.831 695.825 273.261V243.839C693.686 241.441 691.033 239.557 687.867 238.186C684.787 236.73 681.364 236.002 677.599 236.002C673.492 236.002 669.769 236.987 666.432 238.957C663.095 240.927 660.443 243.625 658.474 247.051C656.506 250.392 655.522 254.203 655.522 258.486C655.522 262.769 656.506 266.623 658.474 270.049C660.443 273.475 663.095 276.216 666.432 278.272C669.769 280.242 673.492 281.227 677.599 281.227Z" fill="black"/>
<path d="M784.568 292.662C777.381 292.662 770.449 291.248 763.775 288.422C757.101 285.595 751.197 281.612 746.063 276.473L754.277 266.966C759.155 271.762 764.117 275.317 769.166 277.63C774.3 279.942 779.648 281.099 785.21 281.099C789.574 281.099 793.382 280.499 796.633 279.3C799.97 278.015 802.537 276.216 804.334 273.904C806.131 271.591 807.03 268.979 807.03 266.066C807.03 262.041 805.618 258.957 802.794 256.816C799.97 254.675 795.307 253.047 788.804 251.934L773.787 249.493C765.572 248.036 759.411 245.381 755.304 241.527C751.282 237.672 749.271 232.533 749.271 226.109C749.271 220.97 750.641 216.473 753.379 212.619C756.117 208.679 759.967 205.638 764.93 203.497C769.979 201.355 775.798 200.285 782.386 200.285C788.889 200.285 795.264 201.355 801.511 203.497C807.843 205.552 813.533 208.55 818.581 212.49L811.137 222.769C801.468 215.403 791.67 211.719 781.744 211.719C777.808 211.719 774.386 212.276 771.476 213.39C768.567 214.503 766.299 216.088 764.674 218.143C763.048 220.113 762.235 222.426 762.235 225.081C762.235 228.764 763.476 231.591 765.957 233.561C768.439 235.445 772.546 236.816 778.279 237.672L792.783 240.113C802.281 241.655 809.255 244.439 813.704 248.465C818.154 252.49 820.378 258.015 820.378 265.039C820.378 270.52 818.881 275.36 815.886 279.557C812.891 283.668 808.698 286.88 803.308 289.193C797.917 291.505 791.67 292.662 784.568 292.662Z" fill="black"/>
<path d="M834.771 319C833.402 319 832.118 318.914 830.92 318.743C829.722 318.657 828.738 318.486 827.968 318.229V306.923C829.508 307.266 831.391 307.437 833.616 307.437C839.605 307.437 843.927 304.225 846.579 297.801L849.403 291.505L823.219 225.981H837.466L856.462 275.831L877.512 225.981H891.374L859.8 299.471C857.746 304.096 855.564 307.822 853.254 310.649C850.943 313.561 848.291 315.66 845.296 316.944C842.301 318.315 838.793 319 834.771 319Z" fill="black"/>
<path d="M922.77 292.662C917.123 292.662 911.817 291.848 906.855 290.221C901.977 288.507 897.742 286.109 894.148 283.026L901.207 274.546C904.544 277.201 907.967 279.257 911.475 280.713C915.069 282.084 918.706 282.769 922.385 282.769C927.006 282.769 930.771 281.869 933.68 280.071C936.589 278.272 938.044 275.916 938.044 273.004C938.044 270.606 937.188 268.722 935.477 267.351C933.766 265.981 931.113 265.039 927.519 264.525L915.711 262.854C909.208 261.912 904.33 259.899 901.079 256.816C897.827 253.732 896.201 249.621 896.201 244.482C896.201 240.542 897.271 237.116 899.41 234.203C901.549 231.206 904.544 228.893 908.395 227.266C912.245 225.552 916.738 224.696 921.872 224.696C926.578 224.696 931.113 225.381 935.477 226.752C939.841 228.122 944.034 230.263 948.056 233.176L941.51 241.655C937.916 239.257 934.407 237.501 930.985 236.388C927.648 235.274 924.268 234.717 920.845 234.717C916.909 234.717 913.743 235.574 911.347 237.287C908.951 238.914 907.753 241.056 907.753 243.711C907.753 246.109 908.566 247.994 910.192 249.364C911.903 250.649 914.684 251.548 918.535 252.062L930.343 253.732C936.846 254.675 941.766 256.687 945.103 259.771C948.441 262.769 950.109 266.837 950.109 271.976C950.109 275.916 948.911 279.471 946.515 282.64C944.119 285.724 940.868 288.165 936.761 289.964C932.653 291.762 927.99 292.662 922.77 292.662Z" fill="black"/>
<path d="M987.662 292.533C981.33 292.533 976.495 291.077 973.158 288.165C969.821 285.167 968.153 280.842 968.153 275.188V236.773H954.291V225.981H968.153V209.278L980.859 206.195V225.981H1000.11V236.773H980.859V272.233C980.859 275.574 981.587 277.972 983.042 279.428C984.582 280.799 987.063 281.484 990.486 281.484C992.283 281.484 993.866 281.355 995.235 281.099C996.69 280.842 998.23 280.456 999.856 279.942V290.734C998.144 291.334 996.133 291.762 993.823 292.019C991.598 292.362 989.545 292.533 987.662 292.533Z" fill="black"/>
<path d="M1040.85 292.533C1034.43 292.533 1028.61 291.034 1023.39 288.036C1018.26 285.039 1014.15 280.97 1011.07 275.831C1008.07 270.692 1006.58 264.953 1006.58 258.615C1006.58 252.362 1008.03 246.709 1010.94 241.655C1013.85 236.516 1017.79 232.448 1022.75 229.45C1027.71 226.366 1033.23 224.824 1039.31 224.824C1045.38 224.824 1050.77 226.366 1055.48 229.45C1060.18 232.448 1063.91 236.559 1066.64 241.784C1069.47 246.923 1070.88 252.747 1070.88 259.257V262.854H1019.41C1020.1 266.452 1021.42 269.664 1023.39 272.49C1025.44 275.317 1028.01 277.544 1031.09 279.171C1034.26 280.799 1037.68 281.612 1041.36 281.612C1044.53 281.612 1047.56 281.141 1050.47 280.199C1053.47 279.171 1055.95 277.715 1057.92 275.831L1066.13 283.925C1062.28 286.837 1058.3 289.021 1054.19 290.478C1050.17 291.848 1045.72 292.533 1040.85 292.533ZM1019.54 253.218H1058.17C1057.66 249.792 1056.46 246.794 1054.58 244.225C1052.78 241.57 1050.52 239.514 1047.78 238.058C1045.12 236.516 1042.22 235.745 1039.05 235.745C1035.8 235.745 1032.8 236.473 1030.06 237.929C1027.33 239.385 1025.02 241.441 1023.13 244.096C1021.34 246.666 1020.14 249.707 1019.54 253.218Z" fill="black"/>
<path d="M1084.07 291.377V225.981H1096.9V232.276C1101.78 227.223 1107.9 224.696 1115.26 224.696C1119.71 224.696 1123.64 225.681 1127.07 227.651C1130.57 229.621 1133.35 232.276 1135.41 235.617C1138.15 232.019 1141.36 229.321 1145.03 227.522C1148.71 225.638 1152.86 224.696 1157.48 224.696C1162.36 224.696 1166.6 225.767 1170.19 227.908C1173.87 230.049 1176.74 233.047 1178.79 236.901C1180.93 240.756 1182 245.21 1182 250.263V291.377H1169.16V252.448C1169.16 247.308 1167.8 243.283 1165.06 240.37C1162.4 237.373 1158.77 235.874 1154.15 235.874C1150.98 235.874 1148.12 236.602 1145.55 238.058C1142.98 239.514 1140.76 241.741 1138.87 244.739C1139.04 245.595 1139.17 246.495 1139.26 247.437C1139.34 248.379 1139.39 249.321 1139.39 250.263V291.377H1126.68V252.448C1126.68 247.308 1125.31 243.283 1122.57 240.37C1119.92 237.373 1116.28 235.874 1111.66 235.874C1108.58 235.874 1105.8 236.559 1103.32 237.929C1100.84 239.214 1098.7 241.184 1096.9 243.839V291.377H1084.07Z" fill="black"/>
</svg>
